<svg width="32" height="32" viewBox="0 0 32 32" fill="none" xmlns="http://www.w3.org/2000/svg">
<g clip-path="url(#clip0_314_17)">
<path d="M8.72489 0.625015C8.09989 0.950014 7.29989 2.37501 7.54989 2.65001C7.62489 2.70001 7.82489 2.40001 7.99989 1.97501C8.22489 1.45001 8.67489 1.02501 9.34989 0.725014C9.97489 0.450014 10.1749 0.275014 9.87489 0.275014C9.59989 0.275014 9.07489 0.425014 8.72489 0.625015Z" fill="currentColor"/>
<path d="M7.25 1.00002C7.1 1.27502 7.025 1.77502 7.075 2.07502C7.175 2.57502 7.175 2.55002 7.225 1.97502C7.225 1.62502 7.375 1.22502 7.55 1.05002C7.7 0.900016 7.775 0.700016 7.7 0.600016C7.6 0.525016 7.4 0.700016 7.25 1.00002Z" fill="currentColor"/>
<path d="M9.52494 1.45001C9.04994 1.67501 8.49994 2.15001 8.27494 2.50001C7.92494 3.07501 7.97494 3.05001 8.72494 2.37501C9.34994 1.77501 9.74994 1.62501 10.6249 1.62501C11.8749 1.62501 12.4999 2.07501 13.2249 3.60001C13.5249 4.15001 13.7499 4.47501 13.7499 4.27501C13.7499 3.65001 12.5749 1.87501 11.9499 1.57501C10.8749 1.02501 10.3749 1.00001 9.52494 1.45001Z" fill="currentColor"/>
<path d="M5.37495 2.3C5.29995 2.625 5.09995 3.125 4.92495 3.45C4.57495 4.175 5.04995 4.575 6.04995 4.4C6.54995 4.3 6.92495 4.475 7.62495 5.125C8.12495 5.6 8.62495 6 8.74995 6C8.97495 6 9.99995 4.15 9.99995 3.725C9.99995 3.575 9.52495 3.5 8.87495 3.525C7.72495 3.6 7.34995 3.425 6.44995 2.275C5.87495 1.6 5.57495 1.6 5.37495 2.3ZM6.69995 3.075C7.09995 3.55 6.64995 4.125 6.09995 3.875C5.64995 3.675 5.64995 3.675 6.07495 3.575C6.42495 3.475 6.47495 3.375 6.22495 3.1C6.04995 2.9 6.04995 2.75 6.19995 2.75C6.32495 2.75 6.54995 2.9 6.69995 3.075ZM7.59995 3.725C7.77495 3.975 7.14995 4.575 6.92495 4.35C6.74995 4.15 6.99995 3.5 7.24995 3.5C7.37495 3.5 7.52495 3.6 7.59995 3.725ZM8.99995 4.4C8.99995 4.5 8.82495 4.5 8.62495 4.425C8.42495 4.325 8.19995 4.375 8.12495 4.5C8.02495 4.65 8.09995 4.75 8.22495 4.75C8.37495 4.75 8.49995 4.925 8.49995 5.15C8.49995 5.5 8.42495 5.5 8.12495 5.25C7.69995 4.9 7.62495 4.25 8.02495 4.25C8.14995 4.25 8.19995 4.125 8.09995 3.975C7.99995 3.775 8.09995 3.775 8.47495 3.975C8.74995 4.15 8.99995 4.325 8.99995 4.4Z" fill="currentColor"/>
<path d="M11.5001 3.15C11.9251 3.525 12.5501 4.35 12.9001 5.025C13.2251 5.7 13.8001 6.425 14.1501 6.675C14.9751 7.2 16.4251 7.175 16.9751 6.625C17.3501 6.225 17.3501 6.2 16.8251 6.475C16.1501 6.825 15.1251 6.825 14.5001 6.5C14.2501 6.375 13.6251 5.575 13.1251 4.75C12.2751 3.375 11.4501 2.5 10.9251 2.5C10.8001 2.5 11.0751 2.8 11.5001 3.15Z" fill="currentColor"/>
<path d="M5.6 5.225C4.45 5.75 3.5 6.825 3.5 7.6C3.525 8.025 3.6 7.95 3.875 7.325C4.2 6.55 5.825 5.25 6.425 5.25C6.6 5.25 6.75 5.125 6.75 5C6.75 4.675 6.825 4.675 5.6 5.225Z" fill="currentColor"/>
<path d="M3.75002 5.4C2.87502 6 2.50002 6.5 2.50002 7.175C2.50002 7.6 2.40002 7.7 2.07502 7.575C1.67502 7.425 1.67502 7.475 2.10002 7.95C2.60002 8.525 3.07502 8.475 2.82502 7.875C2.60002 7.25 3.27502 5.975 4.10002 5.475C4.52502 5.225 4.75002 5 4.62502 5C4.47502 5 4.07502 5.175 3.75002 5.4Z" fill="currentColor"/>
<path d="M10.3251 7.025C11.0501 8.425 11.1251 8.8 11.1001 10.6C11.0751 12.35 10.9251 12.95 10.0251 15.15C8.82506 18.075 8.70006 19.675 9.50006 21.25C10.1501 22.5 11.4501 23.5 12.6751 23.65L13.6251 23.75L12.5251 23.4C11.2251 22.975 10.3001 22.175 9.85006 21.075C9.32506 19.875 9.42506 17.575 10.0251 16.25C11.7501 12.5 11.9751 9.9 10.7751 7.35C10.3751 6.5 9.92506 5.75 9.80006 5.65C9.65006 5.55 9.90006 6.175 10.3251 7.025Z" fill="currentColor"/>
<path d="M11.4 6.77502C12.725 8.17502 13.575 9.55002 14.075 11.125C14.85 13.55 14.75 15.1 13.6 17.975C12.875 19.8 12.875 21.275 13.625 22.275C13.975 22.75 14.025 22.775 13.875 22.375C13.1 20.35 13.125 20.1 14 17.95C15.125 15.25 15.2 12.95 14.25 10.55C13.575 8.82502 11.85 6.45002 10.95 5.97502C10.55 5.77502 10.725 6.05002 11.4 6.77502Z" fill="currentColor"/>
<path d="M4.64994 7.92502C4.49994 8.27502 4.52494 8.30002 4.77494 8.07502C4.94994 7.90002 5.02494 7.70002 4.94994 7.62502C4.87494 7.55002 4.72494 7.67502 4.64994 7.92502Z" fill="currentColor"/>
<path d="M5.27488 8.1C5.02488 8.4 5.07488 8.425 5.47488 8.325C5.77488 8.25 5.99988 8.1 5.99988 7.975C5.99988 7.625 5.59988 7.7 5.27488 8.1Z" fill="currentColor"/>
<path d="M19.4 8.75C21.5 9.925 22.975 12.8 22.7 15.125C22.65 15.575 22.7 15.9 22.8 15.85C23.125 15.65 23.025 13.675 22.625 12.35C22.425 11.675 21.85 10.625 21.35 10.05C20.175 8.675 20.625 8.7 22.2 10.125C23.9 11.65 24.775 13.475 24.9 15.675L25 17.375L24.675 15.875C24.5 15.05 24.15 14.025 23.925 13.625L23.525 12.875L23.675 13.775C23.85 14.975 23.375 16.375 22.575 17C21.875 17.525 21.975 17.65 22.75 17.25C23.325 16.95 23.775 16.175 24 15.125C24.15 14.425 24.175 14.475 24.35 15.625C24.525 16.775 24.35 18.025 23.875 19.375C23.725 19.775 23.8 19.75 24.225 19.25C25.875 17.25 25.35 12.925 23.175 10.525C22.5 9.8 20.75 8.675 20.575 8.85C20.5 8.925 20 8.75 19.475 8.5C18.025 7.75 17.975 7.9 19.4 8.75Z" fill="currentColor"/>
<path d="M12.175 9.30001C12.45 9.95001 12.625 11 12.6 12C12.6 13.375 12.425 14 11.525 15.925C10.75 17.6 10.475 18.55 10.45 19.45C10.45 20.65 10.975 22.3 11.475 22.6C11.6 22.7 11.5 22.25 11.2 21.6C10.525 20.05 10.675 18.95 11.975 16.1C12.8 14.25 13 13.525 13 12.325C13 10.85 12.425 8.62501 11.975 8.35001C11.85 8.27501 11.95 8.70001 12.175 9.30001Z" fill="currentColor"/>
<path d="M4.15007 8.67502C3.90007 8.92502 5.22507 10.075 5.57507 9.92502C5.77507 9.85002 6.15007 10 6.37507 10.25C6.62507 10.525 6.92507 10.675 7.07507 10.575C7.22507 10.475 7.27507 10.575 7.17507 10.85C7.07507 11.075 7.10007 11.225 7.22507 11.15C7.82507 10.775 7.92507 13.975 7.37507 16C6.95007 17.625 6.90007 18.725 7.27507 19.25C7.47507 19.525 7.50007 19.4 7.37507 18.7C7.30007 18.125 7.42507 17.075 7.75007 15.85C8.52507 12.875 8.35007 11.575 6.92507 9.70002C6.25007 8.82502 5.97507 8.65002 5.20007 8.60002C4.67507 8.57502 4.22507 8.62502 4.15007 8.67502ZM7.00007 10.35C7.00007 10.475 6.72507 10.275 6.37507 9.90002C6.02507 9.52502 5.75007 9.10002 5.75007 8.92502C5.77507 8.60002 7.00007 10 7.00007 10.35Z" fill="currentColor"/>
<path d="M0.875 9.57499C0.425 10.15 0.25 10.625 0.25 11.45C0.25 12.475 0.375 12.675 1.875 14.225C2.75 15.125 3.5 15.75 3.5 15.575C3.5 15.425 3.05 14.95 2.525 14.5C1.3 13.55 0.5 12.3 0.5 11.375C0.5 10.6 1.4 8.99999 1.825 8.99999C2.025 8.99999 2 9.09999 1.775 9.22499C1.575 9.34999 1.5 9.62499 1.575 9.84999C1.725 10.2 1.825 10.2 2.25 9.94999C2.525 9.77499 2.75 9.47499 2.75 9.29999C2.75 9.09999 2.875 9.04999 3.075 9.14999C3.25 9.24999 3.275 9.22499 3.175 9.09999C3.05 8.97499 2.65 8.87499 2.25 8.84999C1.725 8.82499 1.35 9.02499 0.875 9.57499Z" fill="currentColor"/>
<path d="M1.25 11C1.25 11.8 1.85 12.775 3 13.875C3.575 14.425 4.15 15.15 4.275 15.475C4.4 15.8 4.575 16 4.65 15.925C4.875 15.7 3.925 14.25 3 13.375C2.05 12.475 1.425 11.325 1.6 10.85C1.675 10.65 1.625 10.5 1.5 10.5C1.35 10.5 1.25 10.725 1.25 11Z" fill="currentColor"/>
<path d="M16.5 14.35C16.5 14.4 16.675 14.525 16.9 14.6C17.1 14.675 17.2 14.65 17.125 14.5C16.975 14.25 16.5 14.15 16.5 14.35Z" fill="currentColor"/>
<path d="M15.95 14.875C16.325 15.625 16.975 16.125 18.725 17C20.55 17.9 22.525 19.65 23.375 21.125C23.7 21.675 24.375 23.375 24.875 24.925C25.95 28.175 27.025 30.125 28.225 30.925C29.175 31.575 29.075 31.675 28.025 31.15C26.45 30.325 25.4 28.775 24.4 25.7C23.875 24.075 23.275 22.625 23.05 22.45C22.725 22.15 22.725 22.2 23.05 22.875C23.275 23.275 23.8 24.75 24.225 26.125C25.05 28.825 25.85 30.075 27.4 31.025C28.325 31.575 28.5 31.625 30.5 31.875C31.75 32.025 31.625 31.9 30.1 31.525C28.125 31 26.7 29.025 25.375 25C23.9 20.5 22.225 18.375 18.75 16.625C17.75 16.125 16.65 15.425 16.3 15.05C15.875 14.575 15.75 14.525 15.95 14.875Z" fill="currentColor"/>
<path d="M21.1001 16.2C21.2001 16.275 21.4501 16.375 21.6501 16.4C21.8751 16.425 21.9751 16.4 21.9001 16.3C21.8001 16.225 21.5501 16.125 21.3501 16.1C21.1251 16.075 21.0251 16.1 21.1001 16.2Z" fill="currentColor"/>
<path d="M2.92501 17.5C2.42501 21 2.45001 21.575 3.00001 23.075C3.30001 23.85 3.62501 24.45 3.75001 24.375C3.87501 24.3 3.77501 23.875 3.52501 23.425C2.85001 22.25 2.70001 20.975 3.00001 19.175C3.17501 18.3 3.25001 17.25 3.20001 16.85C3.12501 16.325 3.05001 16.5 2.92501 17.5Z" fill="currentColor"/>
<path d="M4.40011 18.55C4.10011 19.7 4.27511 20.8 5.15011 23.425C5.85011 25.525 6.02511 26.375 5.90011 27.2C5.70011 28.65 4.87511 30.15 4.05011 30.6C3.67511 30.8 3.50011 30.975 3.67511 31C4.17511 31 5.55011 29.675 5.90011 28.825C6.50011 27.425 6.32511 25.475 5.45011 23.325C4.85011 21.8 4.67511 21 4.67511 19.675C4.67511 18.75 4.65011 18 4.62511 18C4.57511 18 4.50011 18.25 4.40011 18.55Z" fill="currentColor"/>
<path d="M20.125 21.175C21.1 23.5 21.25 25.325 20.625 27.45C20.175 28.925 19.025 30.4 17.875 30.925L17.125 31.275L17.875 31.125C19.025 30.875 20.125 29.9 20.75 28.575C21.575 26.9 21.6 23.65 20.825 21.925C20.525 21.275 20.2 20.75 20.1 20.75C20.025 20.75 20.025 20.95 20.125 21.175Z" fill="currentColor"/>
<path d="M21.075 21.125C21.075 21.325 21.175 21.425 21.3 21.35C21.425 21.275 21.45 21.1 21.375 20.975C21.15 20.65 21.075 20.7 21.075 21.125Z" fill="currentColor"/>
<path d="M8.62493 23.25C8.84993 23.875 9.02493 25.2 9.04993 26.2C9.04993 28.375 8.34993 30.05 6.99993 30.925C6.54993 31.25 6.29993 31.5 6.42493 31.5C7.04993 31.5 8.42493 30.275 8.94993 29.25C9.34993 28.45 9.49993 27.7 9.49993 26.575C9.49993 25.075 8.94993 22.9 8.47493 22.375C8.32493 22.25 8.39993 22.625 8.62493 23.25Z" fill="currentColor"/>
<path d="M17.425 24.3C17.675 27.2 16.4 29.875 14.3 31C13.775 31.25 13.55 31.475 13.75 31.5C14.4 31.5 16.1 30.275 16.75 29.325C17.475 28.25 18.025 25.725 17.825 24.375C17.575 22.625 17.3 22.575 17.425 24.3Z" fill="currentColor"/>
<path d="M5.47512 31.425C5.15012 31.825 5.17512 31.85 5.57512 31.525C5.80012 31.35 6.00012 31.15 6.00012 31.1C6.00012 30.9 5.80012 31.025 5.47512 31.425Z" fill="currentColor"/>
</g>
<defs>
<clipPath id="clip0_314_17">
<rect width="32" height="32" fill="white"/>
</clipPath>
</defs>
</svg>
